<svg xmlns="http://www.w3.org/2000/svg" viewBox="0 0 512 512"><path d="M436 410H253V167h183zm-31 31h-23a6 6 0 110-13h23a6 6 0 010 13zm-47-1a8 8 0 01-8 8h-10a8 8 0 01-8-8v-11a8 8 0 018-8h10a8 8 0 018 8zm-50 1h-23a6 6 0 110-13h23a6 6 0 010 13zm7-294h60a2 2 0 010 4h-60a2 2 0 010-4zm112-16H263a20 20 0 00-20 20v289a20 20 0 0020 19h164a20 20 0 0019-19V151a20 20 0 00-19-20z"/><path d="M208 431a10 10 0 1110-11 10 10 0 01-10 11zm23 9v-41H88V93h240v26h23V82a29 29 0 00-29-29H95a29 29 0 00-29 29v329a29 29 0 0029 29h136z"/></svg>