<svg xmlns="http://www.w3.org/2000/svg" viewBox="0 0 512 512"><path d="M143 399v15h226v-15zm0-45v15h226v-15zm241-91a15 15 0 10-15-15 15 15 0 0015 15zm-256 61v105a15 15 0 0015 15h226a15 15 0 0015-15V324zm-15 75H83a30 30 0 01-31-30V233a30 30 0 0131-30h346a30 30 0 0131 30v136a30 30 0 01-31 30h-30v-90H113zm286 15h31a45 45 0 0045-45V233a45 45 0 00-46-45h-30V83a30 30 0 00-30-31H143a30 30 0 00-30 30v106H83a45 45 0 00-46 45v136a45 45 0 0046 45h30v15a30 30 0 0030 31h226a30 30 0 0030-30v-1z" fill-rule="evenodd"/></svg>